<svg width="22" height="18" viewBox="0 0 22 18" fill="none" xmlns="http://www.w3.org/2000/svg">
<path d="M20.3059 0.752319H1.69409C0.761181 0.752319 0 1.5135 0 2.44641V15.5536C0 16.4865 0.761181 17.2477 1.69409 17.2477H20.3059C21.2388 17.2477 22 16.4865 22 15.5536V2.44641C22 1.5135 21.2388 0.752319 20.3059 0.752319ZM20.0599 2.00548L11.116 9.65443L2.17215 2.00548H20.0599ZM20.7468 15.5536C20.7468 15.7949 20.5473 15.9945 20.3059 15.9945H1.69409C1.45274 15.9945 1.25316 15.7949 1.25316 15.5536V2.86877L10.7076 10.954C10.7122 10.9586 10.7215 10.9633 10.7262 10.9679C10.7308 10.9726 10.7401 10.9772 10.7447 10.9819C10.7586 10.9911 10.7679 11.0004 10.7819 11.0051C10.7865 11.0097 10.7911 11.0097 10.7958 11.0143C10.8143 11.0236 10.8329 11.0329 10.8515 11.0422C10.8561 11.0422 10.8608 11.0468 10.8654 11.0468C10.8793 11.0515 10.8932 11.0608 10.9118 11.0654C10.9165 11.0654 10.9257 11.07 10.9304 11.07C10.9443 11.0747 10.9582 11.0793 10.9722 11.0793C10.9768 11.0793 10.9861 11.084 10.9907 11.084C11.0046 11.0886 11.0232 11.0886 11.0371 11.0932C11.0418 11.0932 11.0464 11.0932 11.0511 11.0932C11.0696 11.0932 11.0928 11.0979 11.1114 11.0979C11.13 11.0979 11.1532 11.0979 11.1717 11.0932C11.1764 11.0932 11.181 11.0932 11.1857 11.0932C11.1996 11.0932 11.2181 11.0886 11.2321 11.084C11.2367 11.084 11.246 11.0793 11.2506 11.0793C11.2646 11.0747 11.2785 11.07 11.2924 11.07C11.297 11.07 11.3063 11.0654 11.311 11.0654C11.3249 11.0608 11.3388 11.0561 11.3574 11.0468C11.362 11.0468 11.3667 11.0422 11.3713 11.0422C11.3899 11.0329 11.4084 11.0236 11.427 11.0143C11.4316 11.0097 11.4363 11.0097 11.4409 11.0051C11.4549 10.9958 11.4641 10.9911 11.4781 10.9819C11.4827 10.9772 11.492 10.9726 11.4966 10.9679C11.5013 10.9633 11.5105 10.9586 11.5152 10.954L20.7468 3.06835V15.5536Z" fill="black" fill-opacity="0.8"/>
</svg>
