<svg width="22" height="21" viewBox="0 0 22 21" fill="none" xmlns="http://www.w3.org/2000/svg">
<path d="M20 19.8H2C1.44772 19.8 1 19.3523 1 18.8C1 18.2477 1.44772 17.8 2 17.8H20C20.5523 17.8 21 18.2477 21 18.8C21 19.3523 20.5523 19.8 20 19.8Z" fill="black" fill-opacity="0.8"/>
<path d="M2 20.05H20C20.6904 20.05 21.25 19.4904 21.25 18.8C21.25 18.1097 20.6904 17.55 20 17.55H2C1.30964 17.55 0.75 18.1097 0.75 18.8C0.75 19.4904 1.30964 20.05 2 20.05Z" stroke="black" stroke-opacity="0.8" stroke-width="0.5" stroke-linecap="round"/>
<path d="M20 11.4H2C1.44772 11.4 1 10.9523 1 10.4C1 9.84774 1.44772 9.40002 2 9.40002H20C20.5523 9.40002 21 9.84774 21 10.4C21 10.9523 20.5523 11.4 20 11.4Z" fill="black" fill-opacity="0.8"/>
<path d="M2 11.65H20C20.6904 11.65 21.25 11.0904 21.25 10.4C21.25 9.70967 20.6904 9.15002 20 9.15002H2C1.30964 9.15002 0.75 9.70967 0.75 10.4C0.75 11.0904 1.30964 11.65 2 11.65Z" stroke="black" stroke-opacity="0.8" stroke-width="0.5" stroke-linecap="round"/>
<path d="M20 3H2C1.44772 3 1 2.55228 1 2C1 1.44772 1.44772 1 2 1L20 1C20.5523 1 21 1.44772 21 2C21 2.55228 20.5523 3 20 3Z" fill="black" fill-opacity="0.8"/>
<path d="M2 3.25H20C20.6904 3.25 21.25 2.69036 21.25 2C21.25 1.30964 20.6904 0.75 20 0.75L2 0.75C1.30964 0.75 0.75 1.30964 0.75 2C0.75 2.69036 1.30964 3.25 2 3.25Z" stroke="black" stroke-opacity="0.8" stroke-width="0.5" stroke-linecap="round"/>
</svg>
