<svg width="19" height="19" viewBox="0 0 19 19" fill="none" xmlns="http://www.w3.org/2000/svg">
<path d="M15.016 11.7698C14.627 11.3648 14.1578 11.1483 13.6606 11.1483C13.1673 11.1483 12.6941 11.3608 12.2891 11.7658L11.0219 13.029C10.9177 12.9729 10.8134 12.9207 10.7132 12.8686C10.5688 12.7964 10.4324 12.7282 10.3162 12.6561C9.12917 11.9022 8.05046 10.9197 7.01585 9.6485C6.5146 9.01491 6.17775 8.48157 5.93313 7.94021C6.26196 7.63945 6.56673 7.32667 6.86347 7.02591C6.97575 6.91363 7.08804 6.79734 7.20032 6.68505C8.04244 5.84294 8.04244 4.7522 7.20032 3.91008L6.10557 2.81533C5.98125 2.69102 5.85293 2.56269 5.73263 2.43437C5.49202 2.18575 5.23939 1.9291 4.97873 1.6885C4.58976 1.30353 4.12459 1.09901 3.63536 1.09901C3.14613 1.09901 2.67294 1.30353 2.27193 1.6885C2.26792 1.69251 2.26792 1.69251 2.26391 1.69652L0.900482 3.07197C0.387192 3.58526 0.0944561 4.21084 0.0302948 4.93666C-0.0659471 6.1076 0.27892 7.19834 0.543585 7.91214C1.19322 9.66454 2.16366 11.2886 3.6113 13.029C5.36771 15.1263 7.48102 16.7824 9.89509 17.9494C10.8174 18.3865 12.0485 18.9038 13.424 18.992C13.5082 18.996 13.5964 19 13.6766 19C14.6029 19 15.3809 18.6672 15.9904 18.0055C15.9944 17.9975 16.0024 17.9935 16.0065 17.9855C16.215 17.7328 16.4556 17.5042 16.7082 17.2596C16.8807 17.0952 17.0571 16.9228 17.2295 16.7423C17.6265 16.3293 17.8351 15.8481 17.8351 15.3548C17.8351 14.8576 17.6225 14.3804 17.2175 13.9794L15.016 11.7698ZM16.4516 15.9924C16.4476 15.9924 16.4476 15.9965 16.4516 15.9924C16.2952 16.1609 16.1348 16.3133 15.9623 16.4817C15.7017 16.7303 15.437 16.991 15.1884 17.2837C14.7834 17.7168 14.3062 17.9213 13.6806 17.9213C13.6205 17.9213 13.5563 17.9213 13.4961 17.9173C12.3052 17.8411 11.1984 17.3759 10.3683 16.9789C8.09858 15.8802 6.10557 14.3202 4.4494 12.3433C3.08197 10.6951 2.16767 9.1713 1.56215 7.53519C1.18921 6.53668 1.05287 5.75873 1.11302 5.02488C1.15312 4.5557 1.33357 4.16672 1.66641 3.83389L3.03385 2.46645C3.23034 2.28199 3.43886 2.18174 3.64338 2.18174C3.89601 2.18174 4.10053 2.33412 4.22885 2.46244C4.23286 2.46645 4.23687 2.47046 4.24088 2.47447C4.48549 2.70305 4.71808 2.93964 4.96269 3.19228C5.08701 3.3206 5.21533 3.44892 5.34365 3.58125L6.4384 4.676C6.86347 5.10107 6.86347 5.49406 6.4384 5.91913C6.32211 6.03542 6.20983 6.15171 6.09354 6.264C5.75669 6.60886 5.43588 6.92967 5.08701 7.24246C5.07899 7.25048 5.07097 7.25449 5.06696 7.26251C4.72209 7.60737 4.78625 7.94422 4.85843 8.17279C4.86244 8.18482 4.86645 8.19685 4.87046 8.20888C5.15518 8.89862 5.55619 9.54825 6.16572 10.3222L6.16973 10.3262C7.27651 11.6896 8.44344 12.7523 9.73068 13.5663C9.89509 13.6706 10.0635 13.7548 10.2239 13.835C10.3683 13.9072 10.5046 13.9754 10.6209 14.0476C10.637 14.0556 10.653 14.0676 10.669 14.0756C10.8054 14.1438 10.9337 14.1759 11.066 14.1759C11.3989 14.1759 11.6074 13.9674 11.6756 13.8992L13.047 12.5277C13.1834 12.3914 13.3999 12.227 13.6525 12.227C13.9012 12.227 14.1057 12.3834 14.23 12.5197C14.234 12.5237 14.234 12.5237 14.238 12.5277L16.4476 14.7373C16.8606 15.1463 16.8606 15.5674 16.4516 15.9924Z" fill="black" fill-opacity="0.8"/>
<path d="M10.268 4.51962C11.3186 4.69607 12.273 5.19332 13.035 5.95523C13.7969 6.71715 14.2901 7.67155 14.4706 8.72219C14.5147 8.98685 14.7433 9.17132 15.0039 9.17132C15.036 9.17132 15.0641 9.16731 15.0961 9.1633C15.3929 9.11518 15.5894 8.83447 15.5413 8.53772C15.3247 7.26653 14.7232 6.10761 13.8049 5.18931C12.8866 4.271 11.7277 3.66949 10.4565 3.45294C10.1597 3.40482 9.88303 3.60131 9.8309 3.89405C9.77877 4.18679 9.97125 4.4715 10.268 4.51962Z" fill="black" fill-opacity="0.8"/>
<path d="M18.9779 8.38132C18.621 6.28805 17.6346 4.38327 16.1187 2.86746C14.6029 1.35165 12.6981 0.365166 10.6049 0.0082686C10.3121 -0.0438624 10.0354 0.156642 9.98332 0.449377C9.9352 0.746123 10.1317 1.02282 10.4284 1.07495C12.2971 1.39175 14.0014 2.27797 15.3568 3.62937C16.7122 4.98478 17.5945 6.68906 17.9112 8.55776C17.9554 8.82242 18.1839 9.00689 18.4446 9.00689C18.4767 9.00689 18.5047 9.00288 18.5368 8.99887C18.8296 8.95476 19.0301 8.67405 18.9779 8.38132Z" fill="black" fill-opacity="0.8"/>
</svg>
