<svg width="15" height="16" viewBox="0 0 15 16" fill="none" xmlns="http://www.w3.org/2000/svg">
<path d="M14.0572 14.3185L10.1075 9.89044C10.8861 8.84426 11.3545 7.5073 11.3545 6.04708C11.3545 2.71574 8.91406 0.00704956 5.91223 0.00704956C2.9104 0.00704956 0.464355 2.7189 0.464355 6.05024C0.464355 9.38158 2.90475 12.0903 5.90658 12.0903C7.1818 12.0903 8.35544 11.6004 9.28646 10.7818L13.2503 15.2225C13.4817 15.4817 13.8259 15.4817 14.0572 15.2225C14.2886 14.9633 14.2886 14.5777 14.0572 14.3185ZM1.62108 6.05024C1.62108 3.43321 3.54518 1.30608 5.90658 1.30608C8.26798 1.30608 10.1921 3.43321 10.1921 6.05024C10.1921 8.66727 8.26798 10.7944 5.90658 10.7944C3.54518 10.7944 1.62108 8.66411 1.62108 6.05024Z" fill="black" fill-opacity="0.8"/>
<path d="M13.311 14.9842C13.311 14.9842 13.3109 14.9842 13.3109 14.9841L13.311 14.9842Z" stroke="black" stroke-opacity="0.8" stroke-width="2"/>
</svg>
