<svg width="24" height="23" viewBox="0 0 24 23" fill="none" xmlns="http://www.w3.org/2000/svg">
<path d="M8 23H2.66667C1.95942 23 1.28115 22.953 0.781049 22.4737C0.280952 21.9945 0 21.3444 0 20.6667V15.5556C0 14.8778 0.280952 14.2278 0.781049 13.7485C1.28115 13.2692 1.95942 13 2.66667 13H8C8.70724 13 9.38552 13.2692 9.88562 13.7485C10.3857 14.2278 10.6667 14.8778 10.6667 15.5556V20.6667C10.6667 21.3444 10.3857 21.9945 9.88562 22.4737C9.38552 22.953 8.70724 23 8 23ZM3 15C2.44772 15 2 15.4477 2 16V20C2 20.5523 2.44772 21 3 21H7.66653C8.21882 21 8.66653 20.5523 8.66653 20V16C8.66653 15.4477 8.21882 15 7.66653 15H3Z" fill="black" fill-opacity="0.8"/>
<path d="M21 23H15.6667C14.9594 23 14.2811 22.953 13.781 22.4737C13.281 21.9945 13 21.3444 13 20.6667V15.5556C13 14.8778 13.281 14.2278 13.781 13.7485C14.2811 13.2692 14.9594 13 15.6667 13H21C21.7072 13 22.3855 13.2692 22.8856 13.7485C23.3857 14.2278 23.6667 14.8778 23.6667 15.5556V20.6667C23.6667 21.3444 23.3857 21.9945 22.8856 22.4737C22.3855 22.953 21.7072 23 21 23ZM16 15C15.4477 15 15 15.4477 15 16V20C15 20.5523 15.4477 21 16 21H20.6665C21.2188 21 21.6665 20.5523 21.6665 20V16C21.6665 15.4477 21.2188 15 20.6665 15H16Z" fill="black" fill-opacity="0.8"/>
<path d="M21 10H15.6667C14.9594 10 14.2811 9.95298 13.781 9.47372C13.281 8.99446 13 8.34444 13 7.66667V2.55556C13 1.87778 13.281 1.22776 13.781 0.748505C14.2811 0.269245 14.9594 0 15.6667 0H21C21.7072 0 22.3855 0.269245 22.8856 0.748505C23.3857 1.22776 23.6667 1.87778 23.6667 2.55556V7.66667C23.6667 8.34444 23.3857 8.99446 22.8856 9.47372C22.3855 9.95298 21.7072 10 21 10ZM16 2C15.4477 2 15 2.44772 15 3V7C15 7.55228 15.4477 8 16 8H20.6665C21.2188 8 21.6665 7.55228 21.6665 7V3C21.6665 2.44772 21.2188 2 20.6665 2H16Z" fill="black" fill-opacity="0.8"/>
<path d="M8 10H2.66667C1.95942 10 1.28115 9.95298 0.781049 9.47372C0.280952 8.99446 0 8.34444 0 7.66667V2.55556C0 1.87778 0.280952 1.22776 0.781049 0.748505C1.28115 0.269245 1.95942 0 2.66667 0H8C8.70724 0 9.38552 0.269245 9.88562 0.748505C10.3857 1.22776 10.6667 1.87778 10.6667 2.55556V7.66667C10.6667 8.34444 10.3857 8.99446 9.88562 9.47372C9.38552 9.95298 8.70724 10 8 10ZM3 2C2.44772 2 2 2.44772 2 3V7C2 7.55228 2.44772 8 3 8H7.66653C8.21882 8 8.66653 7.55228 8.66653 7V3C8.66653 2.44772 8.21882 2 7.66653 2H3Z" fill="black" fill-opacity="0.8"/>
</svg>
